<?xml version="1.0" encoding="UTF-8"?>
<svg version="1.1" viewBox="0 0 1024 1024" width="256" height="256" xmlns="http://www.w3.org/2000/svg">
<path transform="translate(503,85)" d="m0 0h19l17 2 23 5 21 8 17 9 17 12 14 12 13 14 11 15 10 18 7 16 5 16 3 12 2 15 1 34v26h48l17 4 16 8 10 7 8 7 8 10 8 14 6 18 4 33 25 244 20 194 1 19-3 19-5 13-7 13-9 11-12 10-14 8-14 5-10 2-37 1h-435l-18-1-31-5-20-6-16-6-18-10-12-9-11-9-11-11-11-14-9-14-9-17-6-15-6-25-2-10v-25l2-22 5-21 8-21 10-19 12-17 9-10 17-17 8-73 13-124 7-63 3-15 6-15 7-11 9-10 7-7 14-9 14-6 14-3 47-1 1-48 2-21 3-15 5-16 9-21 11-18 10-13 11-12 12-11 15-11 16-9 18-8 20-6 18-3zm-4 43-18 3-18 6-16 8-13 9-9 7v2l-4 2-2 4h-2l-10 13-8 13-7 15-5 16-3 21v51l5 1h250l1-1v-43l-2-23-4-16-7-17-8-14-9-12-9-10-11-9-10-7-17-9-17-6-14-3-7-1zm-197 213-11 2-13 7-7 7-6 10-3 9-4 34-4 37-6 59-6 57-4 36v5l8-1 28-5h35l22 3 17 4 22 8 20 11 16 12 12 11 10 10 12 16 12 21 8 21 5 18 3 21v21l-3 26-1 10h260l10 2 7 5 4 7 1 10-5 10-6 5-6 2-282 1-3 3-11 16-13 15-8 7 1 2h356l16-4 11-7 9-10 4-9 2-10-1-18-14-135-17-165-16-155-4-16-7-11-9-8-11-5-10-2h-39l-1 5v56l3 5h2l2 5 3 9v12l-4 10-7 8-8 5-7 2h-9l-10-3-8-6-6-9-3-10v-8l3-10 7-9v-58l-1-4h-255v62l6 8 4 12v8l-4 11-7 9-12 6-5 1h-8l-10-3-9-7-5-9-2-5-1-10 3-11 7-10v-62zm-15 299-19 3-18 6-16 8-12 8-9 7-17 17-9 13-9 17-5 15-3 13v21l1 18 4 18 6 16 9 17 13 16 5 6 8 7 10 8 15 9 20 8 12 3 17 2h16l21-3 16-5 12-5 11-6 14-10 13-12 9-11 10-16 8-18 4-14 2-13 1-18-2-19-6-23-9-19-8-12-9-11-10-10-13-10-16-9-15-6-14-4-14-2z" fill="#030304"/>
<path transform="translate(295,693)" d="m0 0h7l8 3 5 5 4 6 1 5v35h37l7 3 5 5 4 8v10l-4 8-7 6-6 2h-36v35l-4 10-6 6-12 3-8-2-6-4-5-6-2-7v-35h-37l-8-4-5-6-3-7v-9l4-8 5-5 6-3 37-1 1-35 3-8 5-5 4-3z" fill="#020203"/>
</svg>
